<svg width="24" height="55" viewBox="0 0 24 55" fill="none" xmlns="http://www.w3.org/2000/svg">
<g clip-path="url(#clip0_1019_8023)">
<path d="M8.56577 8.94069C7.89202 8.73279 7.7007 8.31699 7.71734 7.74318C7.75061 6.78684 7.74229 5.8305 7.72566 4.87416C7.70902 3.9095 8.03342 3.09453 8.84858 2.57063C9.24784 2.31283 9.76355 2.13819 10.2377 2.11325C11.4105 2.04672 12.5916 2.07167 13.7728 2.09661C15.1369 2.12156 16.2016 3.21096 16.2266 4.57478C16.2432 5.63923 16.2349 6.712 16.2349 7.77645C16.2349 8.55815 16.1184 8.71616 15.3948 8.95732C15.3948 9.58934 15.3865 10.2214 15.4031 10.8617C15.4031 10.9698 15.5029 11.1028 15.5861 11.1777C16.9087 12.3004 18.2395 13.4147 19.5787 14.5207C20.2608 15.0862 20.5103 15.8347 20.502 16.6912C20.502 17.9552 20.502 19.211 20.502 20.475C20.5186 24.766 20.527 29.0654 20.5519 33.3565C20.5519 33.9885 20.3939 34.5457 20.0279 35.0613C19.9613 35.1611 19.953 35.3856 20.0196 35.4854C20.7099 36.4999 20.7183 37.423 20.0362 38.4459C19.9613 38.554 19.953 38.8035 20.0279 38.9116C20.685 39.8263 20.7432 40.8326 20.0279 41.8222C19.8948 42.0051 19.9031 42.1548 20.0279 42.3378C20.7099 43.2858 20.7099 44.292 20.0279 45.2068C19.8865 45.3981 19.8865 45.5311 20.0196 45.7224C20.3689 46.1881 20.5602 46.712 20.5353 47.3024C20.502 48.2837 20.6185 49.2567 20.2857 50.2213C19.7534 51.7931 18.1647 53.0987 16.5011 53.1153C13.4817 53.1486 10.4539 53.1902 7.43453 53.0987C5.35505 53.0405 3.66651 51.369 3.50847 49.2567C3.44192 48.3503 3.53342 47.4355 3.56669 46.5207C3.57501 46.3627 3.63324 46.1798 3.73305 46.0633C4.07409 45.6559 4.00754 45.3066 3.74969 44.8575C3.30884 44.0841 3.36706 43.2525 3.83287 42.4875C4.01586 42.1881 4.04913 41.9802 3.84118 41.6475C3.30884 40.791 3.32547 39.8845 3.86614 39.0197C4.0325 38.7536 4.04081 38.5623 3.86614 38.2796C3.30052 37.3897 3.33379 36.4667 3.88277 35.5769C4.0325 35.3357 4.06577 35.1527 3.88277 34.9116C3.56669 34.5041 3.47519 34.0134 3.47519 33.5062C3.47519 27.8679 3.47519 22.2297 3.46688 16.5831C3.46688 15.685 3.80791 14.9781 4.48998 14.4209C5.80422 13.3399 7.11845 12.2505 8.42436 11.1611C8.49091 11.1029 8.54081 11.0031 8.54913 10.9199C8.57409 10.2629 8.56577 9.59765 8.56577 8.94069ZM8.56577 8.94069C9.71364 8.94069 10.9281 8.89911 12.0427 8.89911C13.1323 8.89911 14.2136 8.89911 15.3865 8.89911C15.3865 9.40638 15.3971 11.1611 15.3971 11.1611C15.3971 11.1611 10.6722 11.1611 8.55948 11.1611C8.55948 10.5706 8.56577 9.50618 8.56577 8.94069ZM3.89941 34.9199H20.0196M3.89941 38.4126H20.0196M3.89941 41.9053H20.0196M3.89941 45.3981H20.0196M3.45856 17.3565C9.16466 17.3565 14.8209 17.3565 20.4937 17.3565H3.45856Z" stroke="#24282F" stroke-width="2" stroke-miterlimit="10"/>
<path d="M12.0176 29.315C9.92151 29.315 8.54905 27.9262 8.6156 26.1133C8.64055 25.4813 8.97327 24.8077 9.3143 24.2422C9.92983 23.2193 10.7367 22.3295 11.2441 21.2235C11.5186 20.6247 12.3254 20.6164 12.6831 21.1653C13.4899 22.4127 14.3051 23.6518 15.062 24.9241C15.794 26.1466 15.245 28.0343 14.0056 28.7412C13.3319 29.1486 12.7496 29.315 12.0176 29.315Z" stroke="#24282F" stroke-width="2" stroke-miterlimit="10"/>
</g>
<defs>
<clipPath id="clip0_1019_8023">
<rect width="24" height="54" fill="white" transform="translate(0 0.614258)"/>
</clipPath>
</defs>
</svg>
