<svg width="77" height="91" viewBox="0 0 77 91" fill="none" xmlns="http://www.w3.org/2000/svg">
<circle cx="38" cy="55" r="29" fill="#FAEEEE"/>
<path d="M7.74429 72.2103C3.17186 64.3477 1.83977 55.014 4.03023 46.1863C6.22068 37.3585 11.7616 29.7302 19.4792 24.9172C27.1969 20.1042 36.4851 18.4846 45.3762 20.4014C54.2674 22.3183 62.0631 27.6211 67.1121 35.1864C72.1611 42.7518 74.0667 51.9855 72.4253 60.9316C70.7838 69.8777 65.7243 77.8335 58.3184 83.1136C50.9125 88.3938 41.742 90.5835 32.7495 89.2191C23.7569 87.8546 16.5063 83.9006 11 76.6613" stroke="#24282F" stroke-width="1.5" stroke-linecap="round" stroke-linejoin="round"/>
<path d="M9.79264 20.8499C9.20792 21.3478 8.5956 21.6591 7.95568 21.7837C7.32186 21.9031 6.68953 21.8269 6.0587 21.555C5.42788 21.2831 4.81942 20.803 4.23333 20.1147C3.60575 19.3777 3.21116 18.6367 3.04957 17.8917C2.89408 17.1415 2.94585 16.4249 3.20491 15.742C3.47006 15.0539 3.92241 14.4375 4.56195 13.8929C4.90304 13.6025 5.26002 13.3615 5.63289 13.1701C6.00577 12.9787 6.36712 12.8601 6.71697 12.8144L7.0946 14.3684C6.81424 14.397 6.5554 14.4755 6.31809 14.6041C6.0756 14.7265 5.84472 14.8811 5.62545 15.0678C5.07118 15.5398 4.77527 16.0807 4.73772 16.6906C4.70017 17.3005 4.96147 17.9343 5.52163 18.5921C5.61499 18.7018 5.71872 18.8236 5.83283 18.9576C5.95302 19.0864 6.0854 19.2049 6.22996 19.3129L5.49207 19.2793C5.40552 18.9432 5.38618 18.6182 5.43405 18.3042C5.47674 17.9842 5.58923 17.6782 5.77153 17.3864C5.95473 17.0833 6.19861 16.8021 6.50315 16.5427C6.91733 16.19 7.35889 15.9559 7.82784 15.8402C8.29679 15.7246 8.75579 15.733 9.20484 15.8655C9.65999 15.9928 10.0587 16.2575 10.401 16.6595C10.7693 17.0919 10.9812 17.5629 11.0368 18.0724C11.0934 18.5707 11.0141 19.0637 10.7991 19.5516C10.5849 20.0281 10.2495 20.4609 9.79264 20.8499ZM8.76904 19.8144C8.97613 19.6381 9.12774 19.4459 9.22386 19.238C9.32089 19.0188 9.35284 18.7972 9.31973 18.5732C9.28661 18.3492 9.18966 18.1428 9.02887 17.954C8.77992 17.6616 8.48232 17.5158 8.1361 17.5164C7.79078 17.5057 7.45366 17.6404 7.12476 17.9205C6.90549 18.1072 6.74993 18.3132 6.65809 18.5386C6.56106 18.7578 6.52606 18.982 6.55309 19.2111C6.58102 19.429 6.67537 19.6324 6.83616 19.8212C6.99176 20.0039 7.17748 20.1295 7.39332 20.1979C7.60398 20.2602 7.82784 20.2639 8.06491 20.2091C8.29679 20.1483 8.5315 20.0167 8.76904 19.8144Z" fill="#24282F"/>
<path d="M16.3831 16.1631C15.7159 16.5435 15.0563 16.7353 14.4044 16.7386C13.7594 16.738 13.1523 16.5454 12.5831 16.1608C12.0139 15.7762 11.5055 15.1912 11.0577 14.4059C10.5783 13.565 10.3286 12.7635 10.3085 12.0014C10.2954 11.2353 10.4796 10.5409 10.8613 9.91815C11.2499 9.29142 11.8091 8.77005 12.5388 8.35403C12.928 8.13216 13.3236 7.96188 13.7256 7.84322C14.1276 7.72455 14.5047 7.67532 14.857 7.69552L14.9387 9.29266C14.6579 9.26857 14.389 9.29757 14.1319 9.37967C13.8709 9.45481 13.6152 9.56371 13.365 9.70634C12.7326 10.0669 12.3412 10.5433 12.1907 11.1355C12.0403 11.7278 12.1791 12.3992 12.607 13.1498C12.6783 13.2749 12.7575 13.4139 12.8447 13.5668C12.9388 13.7157 13.0468 13.8567 13.1687 13.9898L12.45 13.8194C12.4275 13.4731 12.469 13.1501 12.5745 12.8506C12.676 12.544 12.8435 12.2644 13.077 12.0116C13.3134 11.7479 13.6054 11.517 13.9528 11.3189C14.4254 11.0495 14.9029 10.9016 15.3852 10.8753C15.8674 10.849 16.3168 10.9427 16.7334 11.1565C17.1569 11.3663 17.4994 11.7005 17.7609 12.1592C18.0422 12.6527 18.1628 13.1549 18.1226 13.6658C18.0853 14.1659 17.9157 14.6356 17.6136 15.0749C17.3145 15.5032 16.9043 15.866 16.3831 16.1631ZM15.5701 14.9552C15.8064 14.8205 15.9911 14.6599 16.1243 14.4735C16.2604 14.2762 16.3331 14.0644 16.3422 13.8382C16.3514 13.612 16.2945 13.3911 16.1717 13.1757C15.9815 12.8421 15.7163 12.6434 15.376 12.5795C15.0387 12.5048 14.6824 12.5743 14.3071 12.7883C14.0569 12.9309 13.8657 13.1044 13.7335 13.3087C13.5974 13.506 13.5213 13.7197 13.5052 13.9499C13.4921 14.1692 13.5469 14.3866 13.6697 14.602C13.7886 14.8105 13.9477 14.9685 14.147 15.0758C14.3424 15.1762 14.5617 15.2216 14.8048 15.2119C15.0439 15.1953 15.2991 15.1097 15.5701 14.9552Z" fill="#24282F"/>
<path d="M21.1551 13.3991L24.1764 3.68668L25.5417 3.26805L22.5203 12.9805L21.1551 13.3991ZM20.7221 9.49034C20.332 9.60995 19.9609 9.62753 19.6086 9.54308C19.2541 9.45098 18.9384 9.26746 18.6616 8.99252C18.3902 8.70758 18.1852 8.33948 18.0469 7.88822C17.9085 7.43696 17.873 7.02109 17.9404 6.64061C18.0155 6.25778 18.174 5.92885 18.416 5.65383C18.658 5.3788 18.9741 5.18148 19.3641 5.06187C19.7542 4.94226 20.1265 4.9285 20.4811 5.0206C20.8357 5.1127 21.1476 5.29739 21.4167 5.57468C21.6858 5.85197 21.8895 6.21624 22.0279 6.6675C22.1663 7.11876 22.2029 7.53846 22.1379 7.92659C22.0705 8.30707 21.9157 8.63482 21.6737 8.90985C21.4294 9.17723 21.1122 9.37073 20.7221 9.49034ZM20.4336 8.54957C20.686 8.47218 20.8571 8.30678 20.9467 8.05336C21.034 7.7923 21.012 7.44761 20.8806 7.01929C20.7493 6.59098 20.5755 6.29702 20.3592 6.13742C20.1405 5.97016 19.905 5.92524 19.6526 6.00263C19.4079 6.07768 19.238 6.24691 19.1431 6.51032C19.0534 6.76373 19.0743 7.10459 19.2056 7.53291C19.3346 7.95358 19.5084 8.24754 19.7271 8.41479C19.9534 8.57969 20.1889 8.62462 20.4336 8.54957ZM27.3326 11.6053C26.9502 11.7226 26.5791 11.7402 26.2192 11.6581C25.8646 11.566 25.5527 11.3813 25.2836 11.104C25.0122 10.819 24.8072 10.4509 24.6689 9.99969C24.5305 9.54843 24.495 9.13256 24.5624 8.75208C24.6298 8.3716 24.7845 8.04384 25.0265 7.76881C25.2762 7.49144 25.5922 7.29412 25.9747 7.17685C26.3724 7.0549 26.7485 7.03997 27.1031 7.13207C27.4577 7.22417 27.7696 7.40886 28.0387 7.68615C28.3078 7.96344 28.5115 8.32771 28.6499 8.77897C28.7883 9.23023 28.8249 9.64993 28.7599 10.0381C28.6925 10.4185 28.5377 10.7463 28.2957 11.0213C28.0514 11.2887 27.7304 11.4834 27.3326 11.6053ZM27.0442 10.6646C27.2966 10.5872 27.4676 10.4218 27.5572 10.1683C27.6445 9.90729 27.6225 9.5626 27.4912 9.13428C27.3622 8.71362 27.1883 8.41966 26.9697 8.2524C26.7511 8.08515 26.5155 8.04022 26.2631 8.11762C26.0184 8.19267 25.8485 8.3619 25.7536 8.6253C25.6639 8.87872 25.6848 9.21958 25.8161 9.6479C25.9475 10.0762 26.1225 10.374 26.3411 10.5412C26.5651 10.6985 26.7994 10.7396 27.0442 10.6646Z" fill="#24282F"/>
<path d="M34.5326 10.033L34.885 1.64038L36.4916 1.70785L39.8157 7.78066L38.9645 7.74492L42.7261 1.96966L44.3207 2.03662L43.9922 10.4302L42.1699 10.3537L42.393 4.75413L42.7287 4.76823L39.7253 9.36226L38.8501 9.32551L36.1825 4.49333L36.5901 4.51045L36.355 10.1095L34.5326 10.033Z" fill="#24282F"/>
<path d="M49.973 12.0125C48.8324 11.6663 48.037 11.078 47.5868 10.2474C47.1365 9.41691 47.0903 8.41219 47.4481 7.23328L48.8141 2.73199L50.6743 3.29652L49.3292 7.72891C49.0969 8.49444 49.0866 9.09324 49.2982 9.52532C49.5099 9.9574 49.8989 10.2594 50.4654 10.4313C51.0319 10.6032 51.5232 10.5684 51.9393 10.3268C52.3554 10.0852 52.6796 9.58167 52.9119 8.81615L54.257 4.38375L56.0942 4.94131L54.7282 9.4426C54.3705 10.6215 53.7736 11.4311 52.9378 11.8713C52.1019 12.3116 51.1137 12.3586 49.973 12.0125Z" fill="#24282F"/>
<path d="M59.8202 10.7488L63.3501 12.6974L62.5961 14.0631L59.0663 12.1145L59.8202 10.7488ZM57.7134 14.8629L56.0115 13.9234L60.0713 6.56959L65.6287 9.63762L64.8747 11.0033L61.0192 8.87485L57.7134 14.8629Z" fill="#24282F"/>
<path d="M62.2546 17.1366L70.5737 13.2162L72.0284 14.4694L69.3914 23.285L67.8459 21.9535L70.3588 14.3299L70.9406 14.8311L63.7638 18.4368L62.2546 17.1366ZM64.8477 16.9947L66.202 16.2133L69.475 19.0329L68.9116 20.4958L64.8477 16.9947Z" fill="#24282F"/>
<path d="M16.1822 51.3646C17.2559 45.2668 24.9809 34.9909 28.7092 30.6152C32.1712 34.9909 39.3444 45.2668 40.3415 51.3646C41.5878 58.9868 35.7716 65.3386 28.7092 65.3386C21.1035 65.3386 14.84 58.9868 16.1822 51.3646Z" fill="#FAEEEE" stroke="#24282F" stroke-width="2" stroke-linejoin="round"/>
<path d="M29.5127 59.7099C30.8996 51.4599 40.8777 37.5573 45.6934 31.6372C50.1651 37.5573 59.4305 51.4599 60.7184 59.7099C62.3282 70.0223 54.8157 78.6159 45.6934 78.6159C35.8694 78.6159 27.779 70.0223 29.5127 59.7099Z" fill="#FAEEEE" stroke="#24282F" stroke-width="2" stroke-linejoin="round"/>
<ellipse cx="48.7093" cy="66.6631" rx="4.08511" ry="7.14894" transform="rotate(54.9127 48.7093 66.6631)" fill="#FAEEEE" stroke="#24282F" stroke-width="2"/>
</svg>
