<svg width="72" height="91" viewBox="0 0 72 91" fill="none" xmlns="http://www.w3.org/2000/svg">
<circle cx="35.957" cy="55" r="29" fill="#FAEEEE"/>
<path d="M5.70132 72.2103C1.12889 64.3477 -0.203194 55.014 1.98726 46.1863C4.17771 37.3585 9.71862 29.7302 17.4363 24.9172C25.1539 20.1042 34.4421 18.4846 43.3333 20.4014C52.2244 22.3183 60.0202 27.6211 65.0692 35.1864C70.1181 42.7518 72.0237 51.9855 70.3823 60.9316C68.7409 69.8777 63.6813 77.8335 56.2754 83.1136C48.8695 88.3938 39.699 90.5835 30.7065 89.2191C21.714 87.8546 14.4633 83.9006 8.95703 76.6613" stroke="#24282F" stroke-width="1.5" stroke-linecap="round" stroke-linejoin="round"/>
<path d="M10.7321 17.9299C10.1743 18.3046 9.5907 18.5908 8.98124 18.7882C8.36731 18.979 7.82399 19.0598 7.35127 19.0304L7.08261 17.4472C7.5242 17.4589 7.99437 17.3984 8.49313 17.2657C8.99406 17.1219 9.4537 16.9094 9.87204 16.6283C10.1908 16.4142 10.4264 16.2125 10.5788 16.0234C10.7334 15.8231 10.8192 15.6353 10.8363 15.46C10.8534 15.2846 10.8129 15.1239 10.7148 14.9778C10.5898 14.7919 10.4186 14.6949 10.2012 14.6868C9.97923 14.6721 9.72642 14.7118 9.44275 14.806C9.15462 14.8936 8.84439 15.0057 8.51206 15.1422C8.18191 15.2677 7.83952 15.3821 7.48488 15.4854C7.13688 15.5843 6.79428 15.641 6.45707 15.6555C6.11986 15.6701 5.79458 15.6091 5.48123 15.4727C5.17452 15.3318 4.89624 15.0754 4.64638 14.7036C4.37868 14.3051 4.24176 13.8719 4.23563 13.4037C4.23167 12.9245 4.38081 12.4436 4.68304 11.961C4.98746 11.4673 5.46836 10.9996 6.12575 10.5579C6.56401 10.2635 7.03133 10.0266 7.5277 9.84727C8.0196 9.66133 8.4974 9.56198 8.96109 9.54921L9.28625 11.109C8.83595 11.1417 8.41911 11.2241 8.03573 11.3564C7.64789 11.4821 7.29792 11.6498 6.98582 11.8595C6.67373 12.0692 6.44261 12.2775 6.29248 12.4843C6.14235 12.6912 6.06428 12.8834 6.05827 13.061C6.04779 13.2319 6.09386 13.3937 6.19648 13.5464C6.31695 13.7257 6.48815 13.8227 6.71009 13.8374C6.92756 13.8455 7.17813 13.8024 7.4618 13.7082C7.74547 13.614 8.05238 13.5042 8.38253 13.3787C8.71932 13.2488 9.05949 13.1311 9.40302 13.0256C9.7532 12.9156 10.0969 12.8533 10.4341 12.8388C10.7713 12.8243 11.0933 12.8875 11.4 13.0283C11.7133 13.1648 11.9927 13.4156 12.2381 13.7808C12.5013 14.1726 12.6327 14.6048 12.6322 15.0774C12.6317 15.55 12.4792 16.0331 12.1748 16.5268C11.877 17.016 11.3961 17.4837 10.7321 17.9299Z" fill="#24282F"/>
<path d="M14.8466 9.5824L18.5644 7.99132L19.1593 9.38138L15.4414 10.9725L14.8466 9.5824ZM16.3387 12.703L20.5419 10.9042L21.1557 12.3384L15.1763 14.8973L11.8714 7.17479L17.7074 4.67723L18.3212 6.11141L14.2613 7.84885L16.3387 12.703Z" fill="#24282F"/>
<path d="M23.3702 6.51455L27.3193 5.64362L27.6449 7.12014L23.6958 7.99107L23.3702 6.51455ZM24.2551 9.85844L28.7198 8.8738L29.0558 10.3972L22.7044 11.7979L20.8953 3.59502L27.0944 2.2279L27.4303 3.75129L23.118 4.70234L24.2551 9.85844Z" fill="#24282F"/>
<path d="M30.6469 10.071L30.5808 1.67122L34.3967 1.64121C35.3087 1.63404 36.114 1.80371 36.8128 2.15023C37.5115 2.48874 38.0592 2.96845 38.4561 3.58935C38.853 4.21025 39.0549 4.94868 39.0616 5.80466C39.0683 6.65263 38.8781 7.39415 38.4911 8.02921C38.104 8.65628 37.5638 9.14854 36.8706 9.506C36.1773 9.85546 35.3747 10.0338 34.4628 10.041L30.6469 10.071ZM32.5783 8.45972L34.3542 8.44576C34.9142 8.44135 35.3974 8.33355 35.8037 8.12235C36.218 7.90308 36.5356 7.59658 36.7565 7.20283C36.9854 6.80902 37.0978 6.34812 37.0936 5.82013C37.0894 5.28415 36.9698 4.82508 36.7348 4.44291C36.5077 4.05269 36.1854 3.75521 35.7678 3.55049C35.3581 3.3377 34.8732 3.23351 34.3133 3.23792L32.5373 3.25188L32.5783 8.45972Z" fill="#24282F"/>
<path d="M48.1067 12.0524C47.4727 11.8551 46.9166 11.569 46.4384 11.194C45.9679 10.8214 45.5922 10.3862 45.3114 9.88828C45.0383 9.39277 44.8694 8.85847 44.8047 8.28539C44.7477 7.71468 44.8119 7.13141 44.9973 6.53558C45.1826 5.93975 45.4607 5.42303 45.8314 4.98541C46.2098 4.55017 46.6559 4.20719 47.1695 3.95647C47.6832 3.70575 48.2395 3.56045 48.8384 3.52057C49.4373 3.48068 50.0499 3.55818 50.6763 3.75306C51.3103 3.95032 51.8588 4.23407 52.3217 4.6043C52.7922 4.97692 53.1641 5.41098 53.4372 5.90649C53.7179 6.40437 53.8907 6.93986 53.9553 7.51294C54.0224 8.07839 53.962 8.66285 53.7743 9.26631C53.5889 9.86214 53.3058 10.3815 52.9251 10.8244C52.5467 11.2596 52.1007 11.6026 51.587 11.8533C51.0833 12.0988 50.5321 12.2414 49.9332 12.2813C49.3419 12.3236 48.7331 12.2473 48.1067 12.0524ZM48.5872 10.4676C48.9463 10.5793 49.2937 10.6204 49.6297 10.5908C49.9733 10.5637 50.2953 10.4712 50.5957 10.3133C50.8962 10.1554 51.1563 9.93893 51.3759 9.66376C51.6032 9.39097 51.7763 9.06361 51.8951 8.68167C52.014 8.29972 52.0572 7.93196 52.0247 7.57836C52 7.22714 51.9086 6.9013 51.7508 6.60084C51.6005 6.30275 51.3917 6.04507 51.1241 5.82778C50.8566 5.6105 50.5433 5.446 50.1843 5.3343C49.8253 5.2226 49.474 5.18033 49.1304 5.20748C48.7945 5.23702 48.4763 5.33072 48.1758 5.48858C47.8753 5.64645 47.6115 5.86178 47.3842 6.13457C47.1645 6.40973 46.9952 6.73829 46.8764 7.12023C46.76 7.49453 46.7129 7.86111 46.7353 8.21997C46.7678 8.57356 46.8591 8.8994 47.0093 9.19749C47.1672 9.49795 47.3799 9.75683 47.6474 9.97411C47.9149 10.1914 48.2282 10.3559 48.5872 10.4676Z" fill="#24282F"/>
<path d="M53.9264 14.1032L57.7143 6.60574L59.4495 7.48238L55.6615 14.9798L53.9264 14.1032Z" fill="#24282F"/>
<path d="M57.8285 16.0331L62.6969 9.18777L64.2811 10.3144L60.3308 15.869L63.7632 18.3101L62.8452 19.601L57.8285 16.0331Z" fill="#24282F"/>
<path d="M25.1165 36.4844C24.4428 36.2765 24.2515 35.8607 24.2681 35.2869C24.3014 34.3305 24.2931 33.3742 24.2764 32.4179C24.2598 31.4532 24.5842 30.6382 25.3994 30.1143C25.7986 29.8565 26.3143 29.6819 26.7885 29.6569C27.9613 29.5904 29.1424 29.6154 30.3236 29.6403C31.6877 29.6653 32.7524 30.7547 32.7774 32.1185C32.794 33.1829 32.7857 34.2557 32.7857 35.3201C32.7857 36.1019 32.6692 36.2599 31.9456 36.501C31.9456 37.133 31.9373 37.7651 31.9539 38.4054C31.9539 38.5135 32.0537 38.6466 32.1369 38.7214C33.4594 39.8441 34.7903 40.9584 36.1295 42.0644C36.8116 42.6299 37.0611 43.3784 37.0528 44.2349C37.0528 45.4989 37.0528 46.7547 37.0528 48.0187C37.0694 52.3097 37.0777 56.6091 37.1027 60.9002C37.1027 61.5322 36.9446 62.0894 36.5787 62.605C36.5121 62.7048 36.5038 62.9293 36.5703 63.0291C37.2607 64.0436 37.269 64.9667 36.587 65.9896C36.5121 66.0977 36.5038 66.3472 36.5787 66.4553C37.2358 67.37 37.294 68.3763 36.5787 69.3659C36.4456 69.5488 36.4539 69.6985 36.5787 69.8815C37.2607 70.8295 37.2607 71.8357 36.5787 72.7505C36.4373 72.9418 36.4373 73.0748 36.5703 73.2661C36.9197 73.7318 37.111 74.2557 37.0861 74.8461C37.0528 75.8274 37.1692 76.8004 36.8365 77.765C36.3042 79.3368 34.7154 80.6424 33.0519 80.659C30.0324 80.6923 27.0047 80.7339 23.9853 80.6424C21.9058 80.5842 20.2173 78.9127 20.0592 76.8004C19.9927 75.894 20.0842 74.9792 20.1175 74.0644C20.1258 73.9064 20.184 73.7235 20.2838 73.607C20.6249 73.1996 20.5583 72.8503 20.3005 72.4012C19.8596 71.6278 19.9178 70.7962 20.3836 70.0312C20.5666 69.7318 20.5999 69.5239 20.392 69.1912C19.8596 68.3347 19.8763 67.4282 20.4169 66.5634C20.5833 66.2973 20.5916 66.106 20.4169 65.8233C19.8513 64.9334 19.8846 64.0104 20.4336 63.1206C20.5833 62.8794 20.6165 62.6964 20.4336 62.4553C20.1175 62.0478 20.026 61.5571 20.026 61.0499C20.026 55.4116 20.026 49.7734 20.0177 44.1268C20.0177 43.2287 20.3587 42.5218 21.0408 41.9646C22.355 40.8836 23.6692 39.7942 24.9751 38.7048C25.0417 38.6466 25.0916 38.5468 25.0999 38.4636C25.1249 37.8066 25.1165 37.1414 25.1165 36.4844ZM25.1165 36.4844C26.2644 36.4844 27.4788 36.4428 28.5934 36.4428C29.6831 36.4428 30.7644 36.4428 31.9373 36.4428C31.9373 36.9501 31.9479 38.7048 31.9479 38.7048C31.9479 38.7048 27.223 38.7048 25.1103 38.7048C25.1103 38.1143 25.1165 37.0499 25.1165 36.4844ZM20.4502 62.4636H36.5703M20.4502 65.9563H36.5703M20.4502 69.449H36.5703M20.4502 72.9418H36.5703M20.0093 44.9002C25.7154 44.9002 31.3716 44.9002 37.0445 44.9002H20.0093Z" stroke="#24282F" stroke-width="1.5" stroke-miterlimit="10"/>
<path d="M28.5684 56.8589C26.4723 56.8589 25.0998 55.4701 25.1664 53.6572C25.1913 53.0252 25.5241 52.3516 25.8651 51.7861C26.4806 50.7633 27.2875 49.8735 27.7948 48.7674C28.0693 48.1687 28.8762 48.1604 29.2338 48.7092C30.0407 49.9566 30.8558 51.1957 31.6128 52.4681C32.3448 53.6905 31.7958 55.5782 30.5564 56.2851C29.8826 56.6926 29.3004 56.8589 28.5684 56.8589Z" stroke="#24282F" stroke-width="1.5" stroke-miterlimit="10"/>
<circle cx="44.3158" cy="70.1996" r="4.58537" fill="#FAEEEE" stroke="#24282F" stroke-width="1.5"/>
<circle cx="45.0664" cy="68.657" r="0.75" fill="#24282F"/>
<circle cx="38.5854" cy="72.4923" r="4.58537" fill="#FAEEEE" stroke="#24282F" stroke-width="1.5"/>
<circle cx="40.4824" cy="72.0959" r="0.75" fill="#24282F"/>
<circle cx="48.9018" cy="74.7851" r="4.58537" fill="#FAEEEE" stroke="#24282F" stroke-width="1.5"/>
<circle cx="50.7988" cy="74.3887" r="0.75" fill="#24282F"/>
<circle cx="43.1713" cy="77.0776" r="4.58537" fill="#FAEEEE" stroke="#24282F" stroke-width="1.5"/>
<circle cx="45.0684" cy="75.5349" r="0.75" fill="#24282F"/>
</svg>
