<svg width="40" height="53" viewBox="0 0 40 53" fill="none" xmlns="http://www.w3.org/2000/svg">
<g clip-path="url(#clip0_1019_8016)">
<path d="M3.17577 1.55115H36.8333C38.0642 1.55115 39.0696 2.5443 39.0696 3.78106V6.5825C39.0696 7.36016 38.7501 8.10971 38.1769 8.64376L38.1581 8.6625C35.546 11.2672 36.1379 15.9987 36.1379 20.4679V42.9263C36.1379 46.4211 35.6493 46.9645 38.13 49.438L38.2427 49.5504C39.032 50.3375 38.4776 51.6866 37.3595 51.6866H2.49924C1.35289 51.6866 0.807905 50.2719 1.66297 49.5036C4.46306 47.002 4.3691 46.243 4.3691 42.4953V21.1331C4.3691 16.2704 4.13419 11.6701 1.98244 8.59691C1.3247 8.05349 0.939453 7.24772 0.939453 6.40448V3.78106C0.939453 2.5443 1.93546 1.55115 3.17577 1.55115Z" stroke="#24282F" stroke-width="2" stroke-miterlimit="10" stroke-linecap="round"/>
<path d="M10.3828 7.89429H38.9663" stroke="#24282F" stroke-width="2" stroke-miterlimit="10" stroke-linecap="round"/>
<path d="M1.73828 7.89429H6.73711" stroke="#24282F" stroke-width="2" stroke-miterlimit="10" stroke-linecap="round"/>
<path d="M23.8993 30.5095C23.8993 32.6588 22.1652 34.3942 20.0346 34.3942C17.9041 34.3942 16.1699 32.6588 16.1699 30.5095C16.1699 30.0578 16.3954 29.259 16.8497 28.1953C17.286 27.1737 17.8751 26.0375 18.4749 24.9659C19.0347 23.9657 19.5956 23.0361 20.0346 22.3294C20.4736 23.0361 21.0346 23.9657 21.5944 24.9659C22.1941 26.0375 22.7832 27.1737 23.2196 28.1953C23.6739 29.259 23.8993 30.0578 23.8993 30.5095Z" stroke="#24282F" stroke-width="2" stroke-linejoin="round"/>
</g>
<defs>
<clipPath id="clip0_1019_8016">
<rect width="40" height="52" fill="white" transform="translate(0 0.614258)"/>
</clipPath>
</defs>
</svg>
