<svg width="42" height="59" viewBox="0 0 42 59" fill="none" xmlns="http://www.w3.org/2000/svg">
<path d="M25.117 41.8032C25.117 44.2572 23.1277 46.2465 20.6737 46.2465C18.2198 46.2465 16.2305 44.2572 16.2305 41.8032C16.2305 41.2753 16.4914 40.3667 17 39.1808C17.4905 38.0372 18.1518 36.7672 18.8239 35.5713C19.4941 34.3786 20.1658 33.2762 20.6705 32.4709C20.6716 32.4692 20.6727 32.4675 20.6737 32.4658C20.6748 32.4675 20.6759 32.4692 20.677 32.4709C21.1817 33.2762 21.8533 34.3786 22.5236 35.5713C23.1957 36.7672 23.857 38.0372 24.3475 39.1808C24.856 40.3667 25.117 41.2753 25.117 41.8032Z" stroke="#24282F" stroke-width="2"/>
<path d="M18.2265 6.61426H10.2305V4.62128C10.2305 3.5125 10.7337 2.61426 11.3548 2.61426H17.1061C17.7273 2.61426 18.2305 3.5125 18.2305 4.62128V6.61426H18.2265Z" stroke="#24282F" stroke-width="2" stroke-miterlimit="10" stroke-linecap="round"/>
<path d="M39.2314 34.1143C38.6362 31.6143 37.7314 26.6143 37.7314 21.6143C38.0647 13.781 35.7314 -0.285684 23.7314 6.11432C22.2314 6.91432 20.2314 7.11432 15.7314 7.11432H9.73143C7.06478 8.1143 2.03146 12.6143 3.23146 22.6143C4.43146 32.6143 2.80314 33.54 2.2314 38.1143C1.73145 42.1143 2.03139 49.6143 3.23146 52.6143C4.83151 56.6143 9.23141 56.6143 10.7314 56.6143H31.7314C35.728 56.6143 41.6964 52.1184 40.1798 39.3438" stroke="#24282F" stroke-width="2" stroke-linecap="round" stroke-linejoin="round"/>
<ellipse cx="29.2064" cy="16.4658" rx="3.11085" ry="6.48424" transform="rotate(-7.9322 29.2064 16.4658)" stroke="#24282F" stroke-width="2"/>
</svg>
