<svg width="36" height="53" viewBox="0 0 36 53" fill="none" xmlns="http://www.w3.org/2000/svg">
<path d="M21.9941 8.61426H10V6.12303C10 4.73706 10.7548 3.61426 11.6865 3.61426H20.3135C21.2452 3.61426 22 4.73706 22 6.12303V8.61426H21.9941Z" stroke="white" stroke-width="2" stroke-miterlimit="10" stroke-linecap="round"/>
<path d="M27.646 8.61426H22.6484V7.11952C22.6484 6.28794 22.9629 5.61426 23.3511 5.61426H26.9457C27.3339 5.61426 27.6484 6.28794 27.6484 7.11952V8.61426H27.646Z" stroke="white" stroke-width="2" stroke-miterlimit="10" stroke-linecap="round"/>
<path d="M33 34.5961V10.9863C33 9.88176 32.1046 8.98633 31 8.98633H5C3.89543 8.98633 3 9.88176 3 10.9863V48.9863C3 50.0909 3.89543 50.9863 5 50.9863H31C32.1046 50.9863 33 50.0909 33 48.9863V39.2058" stroke="white" stroke-width="2" stroke-linecap="round" stroke-linejoin="round"/>
<path d="M21.7294 31.5095C21.7294 33.6588 19.9953 35.3942 17.8647 35.3942C15.7341 35.3942 14 33.6588 14 31.5095C14 31.0578 14.2254 30.259 14.6797 29.1953C15.1161 28.1737 15.7052 27.0375 16.305 25.9659C16.8648 24.9657 17.4257 24.0361 17.8647 23.3294C18.3037 24.0361 18.8646 24.9657 19.4244 25.9659C20.0242 27.0375 20.6133 28.1737 21.0497 29.1953C21.504 30.259 21.7294 31.0578 21.7294 31.5095Z" stroke="white" stroke-width="2"/>
</svg>
