<svg width="41" height="57" viewBox="0 0 41 57" fill="none" xmlns="http://www.w3.org/2000/svg">
<path d="M24.117 40.8032C24.117 43.2572 22.1277 45.2465 19.6737 45.2465C17.2198 45.2465 15.2305 43.2572 15.2305 40.8032C15.2305 40.2753 15.4914 39.3667 16 38.1808C16.4905 37.0372 17.1518 35.7672 17.8239 34.5713C18.4941 33.3786 19.1658 32.2762 19.6705 31.4709C19.6716 31.4692 19.6727 31.4675 19.6737 31.4658C19.6748 31.4675 19.6759 31.4692 19.677 31.4709C20.1817 32.2762 20.8533 33.3786 21.5236 34.5713C22.1957 35.7672 22.857 37.0372 23.3475 38.1808C23.856 39.3667 24.117 40.2753 24.117 40.8032Z" stroke="white" stroke-width="2"/>
<path d="M17.2265 5.61426H9.23047V3.62128C9.23047 2.5125 9.73366 1.61426 10.3548 1.61426H16.1061C16.7273 1.61426 17.2305 2.5125 17.2305 3.62128V5.61426H17.2265Z" stroke="white" stroke-width="2" stroke-miterlimit="10" stroke-linecap="round"/>
<path d="M38.2314 33.1141C37.6362 30.614 36.7314 25.614 36.7314 20.6141C37.0647 12.7807 34.7314 -1.28593 22.7314 5.11407C21.2314 5.91407 19.2314 6.11407 14.7314 6.11407H8.73143C6.06478 7.11405 1.03146 11.614 2.23146 21.614C3.43146 31.614 1.80314 32.5398 1.2314 37.114C0.731445 41.114 1.03139 48.614 2.23146 51.6141C3.83151 55.614 8.23141 55.6141 9.73141 55.6141H30.7314C34.728 55.6141 40.6964 51.1181 39.1798 38.3435" stroke="white" stroke-width="2" stroke-linecap="round" stroke-linejoin="round"/>
<ellipse cx="28.2064" cy="15.4656" rx="3.11085" ry="6.48424" transform="rotate(-7.9322 28.2064 15.4656)" stroke="white" stroke-width="2"/>
</svg>
