<svg width="24" height="55" viewBox="0 0 24 55" fill="none" xmlns="http://www.w3.org/2000/svg">
<g clip-path="url(#clip0_1243_245)">
<path d="M8.56577 8.94044C7.89202 8.73254 7.7007 8.31674 7.71734 7.74294C7.75061 6.7866 7.74229 5.83026 7.72566 4.87392C7.70902 3.90926 8.03342 3.09429 8.84858 2.57038C9.24784 2.31259 9.76355 2.13795 10.2377 2.113C11.4105 2.04647 12.5916 2.07142 13.7728 2.09637C15.1369 2.12132 16.2016 3.21071 16.2266 4.57454C16.2432 5.63899 16.2349 6.71175 16.2349 7.7762C16.2349 8.55791 16.1184 8.71591 15.3948 8.95708C15.3948 9.58909 15.3865 10.2211 15.4031 10.8614C15.4031 10.9695 15.5029 11.1026 15.5861 11.1774C16.9087 12.3001 18.2395 13.4145 19.5787 14.5205C20.2608 15.086 20.5103 15.8344 20.502 16.691C20.502 17.955 20.502 19.2107 20.502 20.4747C20.5186 24.7658 20.527 29.0652 20.5519 33.3562C20.5519 33.9883 20.3939 34.5454 20.0279 35.061C19.9613 35.1608 19.953 35.3853 20.0196 35.4851C20.7099 36.4997 20.7183 37.4228 20.0362 38.4456C19.9613 38.5537 19.953 38.8032 20.0279 38.9113C20.685 39.8261 20.7432 40.8323 20.0279 41.8219C19.8948 42.0049 19.9031 42.1546 20.0279 42.3375C20.7099 43.2856 20.7099 44.2918 20.0279 45.2066C19.8865 45.3978 19.8865 45.5309 20.0196 45.7221C20.3689 46.1878 20.5602 46.7118 20.5353 47.3022C20.502 48.2835 20.6185 49.2564 20.2857 50.2211C19.7534 51.7928 18.1647 53.0984 16.5011 53.1151C13.4817 53.1483 10.4539 53.1899 7.43453 53.0984C5.35505 53.0402 3.66651 51.3687 3.50847 49.2565C3.44192 48.35 3.53342 47.4352 3.56669 46.5205C3.57501 46.3625 3.63324 46.1795 3.73305 46.0631C4.07409 45.6556 4.00754 45.3063 3.74969 44.8573C3.30884 44.0839 3.36706 43.2523 3.83287 42.4872C4.01586 42.1878 4.04913 41.9799 3.84118 41.6473C3.30884 40.7908 3.32547 39.8843 3.86614 39.0194C4.0325 38.7533 4.04081 38.5621 3.86614 38.2793C3.30052 37.3895 3.33379 36.4664 3.88277 35.5766C4.0325 35.3354 4.06577 35.1525 3.88277 34.9113C3.56669 34.5039 3.47519 34.0132 3.47519 33.5059C3.47519 27.8677 3.47519 22.2294 3.46688 16.5829C3.46688 15.6847 3.80791 14.9779 4.48998 14.4207C5.80422 13.3396 7.11845 12.2502 8.42436 11.1608C8.49091 11.1026 8.54081 11.0028 8.54913 10.9197C8.57409 10.2627 8.56577 9.59741 8.56577 8.94044ZM8.56577 8.94044C9.71364 8.94044 10.9281 8.89886 12.0427 8.89886C13.1323 8.89886 14.2136 8.89886 15.3865 8.89886C15.3865 9.40614 15.3971 11.1608 15.3971 11.1608C15.3971 11.1608 10.6722 11.1608 8.55948 11.1608C8.55948 10.5704 8.56577 9.50593 8.56577 8.94044ZM3.89941 34.9196H20.0196M3.89941 38.4124H20.0196M3.89941 41.9051H20.0196M3.89941 45.3978H20.0196M3.45856 17.3562C9.16466 17.3562 14.8209 17.3562 20.4937 17.3562H3.45856Z" stroke="white" stroke-width="2" stroke-miterlimit="10"/>
<path d="M12.0176 29.315C9.92151 29.315 8.54905 27.9262 8.6156 26.1133C8.64055 25.4813 8.97327 24.8077 9.3143 24.2422C9.92983 23.2193 10.7367 22.3295 11.2441 21.2235C11.5186 20.6247 12.3254 20.6164 12.6831 21.1653C13.4899 22.4127 14.3051 23.6518 15.062 24.9241C15.794 26.1466 15.245 28.0343 14.0056 28.7412C13.3319 29.1486 12.7496 29.315 12.0176 29.315Z" stroke="white" stroke-width="2" stroke-miterlimit="10"/>
</g>
<defs>
<clipPath id="clip0_1243_245">
<rect width="24" height="54" fill="white" transform="translate(0 0.614258)"/>
</clipPath>
</defs>
</svg>
