<svg width="37" height="53" viewBox="0 0 37 53" fill="none" xmlns="http://www.w3.org/2000/svg">
<g clip-path="url(#clip0_1243_257)">
<path d="M35.1574 36.6696V41.3693C35.1574 44.322 32.7394 46.7169 29.7583 46.7169H7.10218C4.12111 46.7169 1.70312 44.322 1.70312 41.3693V11.334C1.70312 8.38128 4.12111 5.98633 7.10218 5.98633H29.7583C32.7394 5.98633 35.1574 8.38128 35.1574 11.334C35.1574 11.334 35.1574 23.3175 35.1574 32.1066" stroke="white" stroke-width="2" stroke-miterlimit="10" stroke-linecap="round"/>
<path d="M26.8528 5.9866H10.0098V3.65726C10.0098 2.36137 11.0697 1.31152 12.3781 1.31152H24.4928C25.8012 1.31152 26.8611 2.36137 26.8611 3.65726V5.9866H26.8528Z" stroke="white" stroke-width="2" stroke-miterlimit="10" stroke-linecap="round"/>
<path d="M18.4309 46.184C19.6062 46.184 20.559 45.2403 20.559 44.0762C20.559 42.912 19.6062 41.9683 18.4309 41.9683C17.2555 41.9683 16.3027 42.912 16.3027 44.0762C16.3027 45.2403 17.2555 46.184 18.4309 46.184Z" stroke="white" stroke-width="2" stroke-miterlimit="10" stroke-linecap="round"/>
<path d="M19.1179 51.0141H19.9805L20.1071 50.1608L20.3642 48.4275L20.5343 47.2808H19.375H17.625H16.4628L16.6362 48.43L16.8978 50.1633L17.0262 51.0141H17.8866H19.1179Z" stroke="white" stroke-width="2" stroke-miterlimit="10" stroke-linecap="round"/>
<path d="M26.8096 20.5477H10.1904C8.98031 20.5477 8 19.7047 8 18.6642V18.0978C8 17.0573 8.98031 16.2144 10.1904 16.2144H26.8096C28.0197 16.2144 29 17.0573 29 18.0978V18.6642C29 19.7047 28.0197 20.5477 26.8096 20.5477Z" stroke="white" stroke-width="2" stroke-miterlimit="10" stroke-linecap="round"/>
<path d="M7.24609 18.3469C7.24609 18.3469 3.04973 17.4303 1.76733 10.3208" stroke="white" stroke-width="2" stroke-miterlimit="10" stroke-linecap="round"/>
<path d="M29.7676 18.3469C29.7676 18.3469 33.9639 17.4303 35.2463 10.3208" stroke="white" stroke-width="2" stroke-miterlimit="10" stroke-linecap="round"/>
</g>
<defs>
<clipPath id="clip0_1243_257">
<rect width="37" height="52" fill="white" transform="translate(0 0.614258)"/>
</clipPath>
</defs>
</svg>
